<svg width="401" height="534" viewBox="0 0 401 534" fill="none" xmlns="http://www.w3.org/2000/svg">
<path d="M179.923 280.264C184.872 280.264 188.895 276.232 188.895 271.284C188.895 266.334 184.872 262.305 179.923 262.305C174.977 262.305 170.953 266.334 170.953 271.284C170.953 276.232 174.977 280.264 179.923 280.264ZM179.923 266.162C182.747 266.162 185.043 268.459 185.043 271.284C185.043 274.11 182.747 276.407 179.923 276.407C177.1 276.407 174.805 274.11 174.805 271.284C174.805 268.459 177.1 266.162 179.923 266.162ZM176.575 306.964C176.575 307.849 177.294 308.583 178.178 308.6H239.981C240.873 308.593 241.6 307.863 241.6 306.964C241.6 306.491 241.403 306.147 241.24 305.946L240.751 305.338L240.757 305.324L217.058 275.561C216.445 274.718 215.078 274.701 214.444 275.511L201.966 291.176L196.634 284.487C196.307 284.061 195.834 283.823 195.32 283.823C194.793 283.823 194.314 284.068 194.005 284.494L177.021 305.844C176.68 306.303 176.575 306.627 176.575 306.964ZM195.323 289.018L201.968 297.353L215.733 280.075L235.374 304.746H182.816L195.323 289.018Z" fill="#999999"/>
<path d="M249.178 249.76L248.347 249.747L236.132 216.189C235.408 214.193 233.496 212.854 231.374 212.854C230.784 212.854 230.201 212.961 229.643 213.162L149.189 242.447C147.918 242.909 146.905 243.838 146.332 245.064C145.762 246.29 145.702 247.665 146.163 248.934L158.404 282.779V316.079C158.404 318.875 160.675 321.149 163.468 321.149H249.086C251.878 321.149 254.149 318.875 254.149 316.079V254.82C254.148 252.083 251.919 249.816 249.178 249.76ZM158.404 254.82V271.305L149.369 246.478L232.097 216.368L244.254 249.757H163.467C160.675 249.757 158.404 252.031 158.404 254.82ZM250.297 317.289H162.256V253.61H250.297V317.289Z" fill="#999999"/>
</svg>
