<svg width="148" height="122" viewBox="0 0 148 122" fill="none" xmlns="http://www.w3.org/2000/svg">
<rect width="145.856" height="120" transform="translate(1 1)" fill="white"/>
<path d="M25.938 38.5163C28.0287 27.1336 39.0398 3.81065 66.3583 1.58057C82.0385 -0.858582 115.211 3.11375 122.459 38.5163C122.548 38.9537 122.459 39.2132 122.459 40.2585C123.504 39.4455 125.874 37.68 126.989 37.1225C127.686 36.774 128.034 33.2895 128.382 31.1988C128.731 30.8504 131.518 31.1988 131.867 32.9411C136.978 32.9411 147.129 34.0562 146.85 38.5163C146.153 39.3293 144.202 41.1645 141.972 42.0008C141.972 41.6523 138.487 58.3779 128.382 66.0438C128.382 65.6954 131.867 102.283 92.8405 112.039C92.5617 112.597 92.7243 117.382 92.8405 119.705C89.9367 121.564 84.1989 122.841 84.4777 113.085C84.8261 113.085 68.1005 115.524 64.616 113.085C64.2676 113.085 65.3129 121.099 60.4346 119.705C59.7377 119.705 55.2079 120.751 56.6017 112.039C56.9501 112.039 17.2268 103.676 21.0597 67.4376C20.7113 67.4376 4.68263 45.4852 5.37953 42.0008C5 41.5 2.24351 39.2132 1.19816 39.2132C0.152811 39.2132 2.94041 30.8504 16.8784 33.9864C16.53 33.9864 16.1814 31.5473 18.6206 30.5019C18.6206 30.1535 21.0597 35.7287 21.0597 35.7287C21.0597 35.7287 24.5443 38.5163 25.938 38.5163Z" stroke="#7367E0" stroke-width="2"/>
<path d="M71.335 19.0025C71.335 21.3854 69.5564 23.2824 67.4036 23.2824C65.2508 23.2824 63.4722 21.3854 63.4722 19.0025C63.4722 16.6196 65.2508 14.7227 67.4036 14.7227C69.5564 14.7227 71.335 16.6196 71.335 19.0025Z" fill="white" stroke="#7367E0" stroke-width="0.5"/>
<path d="M85.273 19.0025C85.273 21.3854 83.4944 23.2824 81.3416 23.2824C79.1888 23.2824 77.4102 21.3854 77.4102 19.0025C77.4102 16.6196 79.1888 14.7227 81.3416 14.7227C83.4944 14.7227 85.273 16.6196 85.273 19.0025Z" fill="white" stroke="#7367E0" stroke-width="0.5"/>
<circle cx="67.4038" cy="20.0474" r="2.7876" fill="#7367E0"/>
<circle cx="81.3413" cy="20.0474" r="2.7876" fill="#7367E0"/>
<path d="M78.554 31.1989C77.1602 30.3626 73.6143 30.1779 71.9334 30.8506C69.1458 31.9659 72.6302 35.0318 75.0694 36.077C76.8116 35.3801 79.9478 32.0352 78.554 31.1989Z" fill="#7367E0"/>
<path d="M75.0698 35.7282C79.4835 37.7028 90.1229 39.9793 97.3706 33.2891" stroke="#7367E0" stroke-width="0.696901"/>
<path d="M75.0695 35.3798C71.3527 37.4705 62.1071 39.9793 54.8594 33.2891" stroke="#7367E0" stroke-width="0.696901"/>
<path d="M67 38C69.8333 40.5 76.8 44 82 38" stroke="#7367E0" stroke-width="0.5" stroke-linecap="round"/>
</svg>
